# xmcd
#
# Track frame offsets:
#        150
#        28597
#        49124
#
# Disc length: 1008 seconds
#
# Revision: 0
# Processed by: cddbd v1.5.1PL0 Copyright (c) Steve Scherf et al.
# Submitted via: ExactAudioCopy v0.95b2
#
DISCID=1d03ee03
DTITLE=lab. - WHEEL OF FORTUNE
DYEAR=2004
DGENRE=Rock
TTITLE0=WHEEL OF FORTUNE
TTITLE1=AMERICAN DARKNESS
TTITLE2=SKY LOVE #1.5
EXTD=
EXTT0=
EXTT1=
EXTT2=
PLAYORDER=
